<svg xmlns="http://www.w3.org/2000/svg" width="800" height="800" viewBox="0 0 498.631 498.631" xml:space="preserve"><path d="M43.734 222.979a6.013 6.013 0 0 1-1.009-4.567c5.474-29.439 21.583-56.329 44.861-75.015a5.995 5.995 0 0 1 8.572 1.091l30.257 40.753a5.987 5.987 0 0 1 .38 6.572 6.043 6.043 0 0 1-1.331 1.592 61.839 61.839 0 0 0-20.827 34.999c-.623 3.139-3.62 5.212-6.786 4.723l-50.145-7.699a5.94 5.94 0 0 1-3.972-2.449zm58.679 41.93a5.817 5.817 0 0 0-.714-1.963 5.988 5.988 0 0 0-5.888-2.955l-50.419 5.822a6.056 6.056 0 0 0-4.083 2.32 5.989 5.989 0 0 0-1.149 4.553c4.543 29.505 19.774 56.902 42.53 76.366a5.998 5.998 0 0 0 8.578-.805l31.748-39.576c1.989-2.498 1.699-6.131-.712-8.237a61.846 61.846 0 0 1-19.891-35.525zm98.594 59.739c-1.159-2.973-4.455-4.542-7.474-3.514a61.863 61.863 0 0 1-40.727-.524 5.832 5.832 0 0 0-2.043-.362 5.969 5.969 0 0 0-5.502 3.623l-20.173 46.577a5.957 5.957 0 0 0-.021 4.689 5.912 5.912 0 0 0 3.359 3.277c27.823 10.813 59.166 11.327 87.402 1.336a6.002 6.002 0 0 0 3.458-3.146 5.956 5.956 0 0 0 .128-4.674l-18.407-47.282zm106.967-49.402a5.992 5.992 0 0 0-3.971-2.451l-50.146-7.693c-3.152-.481-6.162 1.587-6.777 4.723a61.85 61.85 0 0 1-20.815 34.992 5.873 5.873 0 0 0-1.347 1.6 5.993 5.993 0 0 0 .381 6.565l30.253 40.752a6.027 6.027 0 0 0 4.057 2.378 6.058 6.058 0 0 0 4.524-1.28c23.271-18.687 39.381-45.576 44.87-75.021a6.058 6.058 0 0 0-1.029-4.565zm-58.682-41.923c.118.706.369 1.368.712 1.956a5.996 5.996 0 0 0 5.888 2.958l50.419-5.833a6.007 6.007 0 0 0 4.081-2.32c.998-1.294 1.401-2.935 1.161-4.55-4.548-29.505-19.774-56.896-42.54-76.362a6.024 6.024 0 0 0-4.464-1.412 6.004 6.004 0 0 0-4.113 2.219L228.7 189.555c-2.001 2.496-1.708 6.131.7 8.238a61.875 61.875 0 0 1 19.892 35.53zm-98.597-59.749c1.15 2.978 4.454 4.54 7.475 3.513 13.355-4.448 27.676-4.213 40.726.534a5.986 5.986 0 0 0 2.045.364 5.991 5.991 0 0 0 5.502-3.62l20.16-46.58a5.979 5.979 0 0 0 .035-4.689 5.967 5.967 0 0 0-3.362-3.278c-27.819-10.815-59.165-11.319-87.402-1.346a6.024 6.024 0 0 0-3.455 3.154 6.003 6.003 0 0 0-.142 4.673l18.418 47.275zm25.995 44.737c-16.809 0-30.449 13.633-30.449 30.449 0 16.812 13.64 30.449 30.449 30.449 16.811 0 30.45-13.637 30.45-30.449 0-16.816-13.639-30.449-30.45-30.449zm321.941 168.597-22.393 36.302h-302.35C78.01 423.21 0 345.189 0 249.316 0 153.432 78.01 75.42 173.888 75.42c95.891 0 173.902 78.012 173.902 173.896 0 55.928-26.572 105.756-67.734 137.592h218.575zm-57.084 8.942h13.098l5.453-6.49h-13.111l-5.44 6.49zm-29.178 0h13.102l5.459-6.49h-13.122l-5.439 6.49zm-26.483 0h13.098l5.453-6.49h-13.111l-5.44 6.49zm-.33 13.745h75.951l8.395-12.586H393.95l-8.394 12.586zm-27.722-13.745h13.101l5.439-6.49h-13.101l-5.439 6.49zm-29.1 0h13.1l5.439-6.49h-13.098l-5.441 6.49zm-30.675 0h13.102l5.439-6.49h-13.102l-5.439 6.49zm-124.171 15.376c89.283 0 161.907-72.635 161.907-161.91 0-89.274-72.624-161.903-161.907-161.903-89.272 0-161.897 72.629-161.897 161.903 0 89.275 72.625 161.91 161.897 161.91zm88.821 1.872h-13.973l-5.614 6.921h13.961l5.626-6.921zm6.238-17.248h13.101l5.439-6.49h-13.101l-5.439 6.49zm24.799 17.248H279.77l-5.613 6.921h13.976l5.613-6.921zm32.725 0h-13.978l-5.613 6.921h13.975l5.616-6.921zm31.046 0h-13.985l-5.602 6.921h13.965l5.622-6.921zm6.457-16.1h-75.962l-8.395 12.588h75.952l8.405-12.588zm23.453 16.1h-13.975l-5.612 6.921h13.974l5.613-6.921zm28.247 0H401.7l-5.616 6.921h13.975l5.615-6.921zm31.125 0h-13.975l-5.616 6.921h13.965l5.626-6.921zm31.037 0H463.86l-5.612 6.921h13.975l5.613-6.921zm5.92-17.248 5.439-6.49h-13.111l-5.426 6.49h13.098z"/></svg>